HIERARCHY
ROOT Hips
{
	OFFSET 0.00000 0.00000 0.00000
	CHANNELS 6 Xposition Yposition Zposition Zrotation Yrotation Xrotation 
	JOINT LHipJoint
	{
		OFFSET 0 0 0
		CHANNELS 3 Zrotation Yrotation Xrotation
		JOINT LeftHip
		{
			OFFSET 1.52977 -1.71332 0.88991
			CHANNELS 3 Zrotation Yrotation Xrotation
			JOINT LeftKnee
			{
				OFFSET 2.23949 -6.15296 0.00000
				CHANNELS 3 Zrotation Yrotation Xrotation
				JOINT LeftAnkle
				{
					OFFSET 2.68396 -7.37412 0.00000
					CHANNELS 3 Zrotation Yrotation Xrotation
					JOINT LeftToe
					{
						OFFSET 0.20538 -0.56428 2.52710
						CHANNELS 3 Zrotation Yrotation Xrotation
						End Site
						{
							OFFSET 0.00000 -0.00000 1.29919
						}
					}
				}
			}
		}
	}
	JOINT RHipJoint
	{
		OFFSET 0 0 0
		CHANNELS 3 Zrotation Yrotation Xrotation
		JOINT RightHip
		{
			OFFSET -1.45689 -1.71333 0.88991
			CHANNELS 3 Zrotation Yrotation Xrotation
			JOINT RightKnee
			{
				OFFSET -2.36700 -6.50329 0.00000
				CHANNELS 3 Zrotation Yrotation Xrotation
				JOINT RightAnkle
				{
					OFFSET -2.69814 -7.41308 0.00000
					CHANNELS 3 Zrotation Yrotation Xrotation
					JOINT RightToe
					{
						OFFSET -0.18734 -0.51471 2.37479
						CHANNELS 3 Zrotation Yrotation Xrotation
						End Site
						{
							OFFSET -0.00000 -0.00000 1.22113
						}
					}
				}
			}
		}
	}
	JOINT lowerback
	{
		OFFSET 0 0 0
		CHANNELS 3 Zrotation Yrotation Xrotation
		JOINT Chest
		{
			OFFSET 0.04294 2.14638 -0.31163
			CHANNELS 3 Zrotation Yrotation Xrotation
			JOINT Chest2
			{
				OFFSET -0.00400 2.17216 0.01486
				CHANNELS 3 Zrotation Yrotation Xrotation
				JOINT lowerneck
				{
					OFFSET 0 0 0
					CHANNELS 3 Zrotation Yrotation Xrotation
					JOINT Neck
					{
						OFFSET 0.03869 1.76598 0.14916
						CHANNELS 3 Zrotation Yrotation Xrotation
						JOINT Head
						{
							OFFSET -0.00760 1.75513 -0.18948
							CHANNELS 3 Zrotation Yrotation Xrotation
							End Site
							{
								OFFSET -0.00601 1.82444 -0.08310
							}
						}
					}
				}
				JOINT LeftCollar
				{
					OFFSET 0 0 0
					CHANNELS 3 Zrotation Yrotation Xrotation
					JOINT LeftShoulder
					{
						OFFSET 3.73696 0.92058 0.01733
CHANNELS 3 Zrotation Xrotation Yrotation
						JOINT LeftElbow
						{
OFFSET 0 -5.227710 0.000000
CHANNELS 3 Zrotation Xrotation Yrotation
							JOINT LeftWrist
							{
OFFSET 0 -3.452510 0.000000
CHANNELS 3 Zrotation Xrotation Yrotation
								JOINT lhand
								{
									OFFSET 0 0 0
CHANNELS 3 Zrotation Xrotation Yrotation
									JOINT LFingers
									{
OFFSET 0 -0.552120 0.000000
CHANNELS 3 Zrotation Xrotation Yrotation
										End Site
										{
OFFSET 0 -0.445130 0.000000
										}
									}
								}
								JOINT LThumb
								{
OFFSET 0 0.000000 0.000000
CHANNELS 3 Zrotation Xrotation Yrotation
									End Site
									{
OFFSET 0 -0.451930 0.451930
									}
								}
							}
						}
					}
				}
				JOINT RightCollar
				{
					OFFSET 0 0 0
					CHANNELS 3 Zrotation Yrotation Xrotation
					JOINT RightShoulder
					{
						OFFSET -3.63819 0.83094 -0.13694
CHANNELS 3 Zrotation Xrotation Yrotation
						JOINT RightElbow
						{
OFFSET 0 -5.239800 -0.000000
CHANNELS 3 Zrotation Xrotation Yrotation
							JOINT RightWrist
							{
OFFSET 0 -3.480420 -0.000000
CHANNELS 3 Zrotation Xrotation Yrotation
								JOINT rhand
								{
									OFFSET 0 0 0
CHANNELS 3 Zrotation Xrotation Yrotation
									JOINT RFingers
									{
OFFSET 0 -0.618710 0.000000
CHANNELS 3 Zrotation Xrotation Yrotation
										End Site
										{
OFFSET 0 -0.498820 0.000000
										}
									}
								}
								JOINT RThumb
								{
OFFSET 0 0.000000 0.000000
CHANNELS 3 Zrotation Xrotation Yrotation
									End Site
									{
OFFSET 0 -0.506440 0.506440
									}
								}
							}
						}
					}
				}
			}
		}
	}
}
MOTION
Frames: 10
Frame Time: 0.008333333333333333
19.805588 16.634496 -0.610583 -0.546093 -83.199522 -4.168745 0.000000 0.000000 0.000000 -23.745801 13.092722 13.685320 0.000000 0.000000 0.000000 0.374222 4.803309 -14.327178 0.013058 0.738912 2.030782 0.000000 0.000000 0.000000 7.968760 31.267225 -58.275796 -10.948410 -17.902333 62.604473 -3.177799 -5.553245 -35.943114 -0.910939 6.081491 -17.021267 1.077534 0.271210 7.396322 -0.893653 0.373409 2.086924 -1.558842 0.165189 -1.978129 6.562828 0.882235 -1.315443 -1.777370 1.058580 2.627188 -1.661775 0.565963 1.094164 0.000000 0.000000 0.000000 2.207460 3.580748 -7.192110 7.111569 -12.102732 0.754906 17.955290 -4.894473 -10.163557 0.000000 0.000000 0.000000 -7.125000 0.000000 0.000000 -7.990918 40.524478 -0.888253 0.000000 0.000000 0.000000 5.050069 9.866502 9.681633 -10.776887 -17.945445 -1.706520 -21.838566 15.926008 8.630579 0.000000 0.000000 0.000000 7.125000 0.000000 0.000000 4.394928 39.230422 0.626209
19.619229 16.635813 -0.592307 2.000861 -83.463508 -6.579531 0.000000 0.000000 0.000000 -23.993770 13.254774 14.247963 0.000000 0.000000 0.000000 0.412873 5.071063 -15.064177 0.009152 0.617195 1.696151 0.000000 0.000000 0.000000 6.890163 32.184355 -54.377035 -7.788884 -15.957369 51.791420 -3.454584 -4.543084 -36.916459 -0.978987 6.298442 -17.652763 1.020599 0.315108 7.081964 -0.994394 0.425221 2.039365 -1.632873 0.192773 -1.850424 6.570822 0.899942 -1.345774 -1.808157 1.080606 2.662227 -1.673003 0.577255 1.111919 0.000000 0.000000 0.000000 2.145347 3.633780 -6.767515 6.985942 -11.896029 0.728766 18.043912 -4.419832 -10.200248 0.000000 0.000000 0.000000 -7.125000 0.000000 0.000000 -7.920100 40.570093 -0.871287 0.000000 0.000000 0.000000 4.984128 10.055100 9.230057 -10.661684 -17.767786 -1.671214 -21.937210 16.506008 8.788045 0.000000 0.000000 0.000000 7.125000 0.000000 0.000000 4.328592 39.406790 0.597943
19.409399 16.616667 -0.574546 4.672034 -83.786059 -9.279929 0.000000 0.000000 0.000000 -24.159160 13.582249 15.052722 0.000000 0.000000 0.000000 0.459687 5.323336 -15.865765 0.004956 0.455483 1.251510 0.000000 0.000000 0.000000 6.397155 32.717018 -50.951211 -5.872729 -14.301579 44.464563 -3.661399 -4.227314 -37.815431 -0.999387 6.361712 -17.837622 0.964761 0.384442 6.799232 -1.081857 0.511199 2.017509 -1.696274 0.237287 -1.712451 6.621614 0.900656 -1.319647 -1.828375 1.081718 2.753714 -1.688991 0.579515 1.137295 0.000000 0.000000 0.000000 2.092488 3.730821 -6.537175 6.816901 -11.617551 0.694333 17.848140 -3.959766 -10.231126 0.000000 0.000000 0.000000 -7.125000 0.000000 0.000000 -8.096062 40.585053 -0.887951 0.000000 0.000000 0.000000 4.927587 10.277301 8.634271 -10.524131 -17.555174 -1.629492 -22.009493 17.053176 8.903925 0.000000 0.000000 0.000000 7.125000 0.000000 0.000000 4.279980 39.536535 0.577505
19.174214 16.576970 -0.555840 6.596485 -84.268926 -11.327490 0.000000 0.000000 0.000000 -24.136644 14.124649 16.022474 0.000000 0.000000 0.000000 0.510852 5.583036 -16.695616 0.001607 0.255747 0.702649 0.000000 0.000000 0.000000 6.909666 32.305908 -48.148894 -4.876026 -13.242364 40.283335 -3.761146 -3.996526 -38.211312 -1.051696 6.521077 -18.304014 1.127336 0.478506 6.535350 -1.165345 0.645694 1.968750 -1.881927 0.305806 -1.608087 6.631408 0.869553 -1.174957 -1.794351 1.047478 2.873499 -1.680576 0.564894 1.148433 0.000000 0.000000 0.000000 2.043975 3.973114 -6.389578 6.723586 -11.463442 0.675665 17.710614 -3.536304 -10.286727 0.000000 0.000000 0.000000 -7.125000 0.000000 0.000000 -8.225713 40.630644 -0.893084 0.000000 0.000000 0.000000 4.939884 10.488406 7.851534 -10.328505 -17.251772 -1.570988 -22.093597 17.653708 9.055579 0.000000 0.000000 0.000000 7.125000 0.000000 0.000000 4.225413 39.705639 0.552536
18.913976 16.529408 -0.538382 8.023501 -84.778520 -12.699718 0.000000 0.000000 0.000000 -24.043312 14.630164 16.901843 0.000000 0.000000 0.000000 0.551381 5.904656 -17.419405 0.000168 -0.065182 -0.179042 0.000000 0.000000 0.000000 7.791818 31.238542 -45.950100 -4.294897 -12.542331 37.679225 -3.864921 -3.580286 -38.553090 -1.082062 6.611502 -18.569350 1.418641 0.562182 6.086848 -1.245344 0.774473 1.842481 -2.133071 0.372264 -1.477886 6.623139 0.815171 -1.089092 -1.738933 0.976546 3.104876 -1.662923 0.533605 1.203177 0.000000 0.000000 0.000000 1.991131 4.154442 -5.899197 6.572920 -11.214293 0.646014 17.919331 -2.862536 -10.292987 0.000000 0.000000 0.000000 -7.125000 0.000000 0.000000 -8.045136 40.655395 -0.868252 0.000000 0.000000 0.000000 4.979278 10.562711 6.943916 -10.045046 -16.810019 -1.487985 -22.247550 18.650953 9.172980 0.000000 0.000000 0.000000 7.125000 0.000000 0.000000 4.105851 39.844107 0.522818
18.634303 16.474325 -0.529643 12.938413 -85.045672 -17.365503 0.000000 0.000000 0.000000 -24.294195 14.918852 17.686147 0.000000 0.000000 0.000000 0.581570 6.240950 -18.022607 0.004809 -0.446808 -1.227657 0.000000 0.000000 0.000000 8.211459 29.830967 -44.240972 -3.917568 -12.049852 35.908483 -3.955202 -3.411880 -38.922486 -1.102291 6.671087 -18.744484 1.205208 0.595331 5.421812 -1.325628 0.804126 1.718306 -2.089479 0.390526 -1.235712 6.624543 0.808231 -1.106870 -1.774836 0.964826 3.328017 -1.675983 0.530639 1.277236 0.000000 0.000000 0.000000 1.784556 4.375214 -5.805019 6.564014 -11.199498 0.644248 18.072279 -2.698535 -10.363342 0.000000 0.000000 0.000000 -7.125000 0.000000 0.000000 -7.924113 40.741812 -0.838012 0.000000 0.000000 0.000000 4.903567 10.525521 6.191645 -9.813118 -16.446821 -1.421599 -22.306631 19.690325 9.222718 0.000000 0.000000 0.000000 7.125000 0.000000 0.000000 4.060473 39.902361 0.511182
18.340595 16.409163 -0.532987 21.282949 -84.998948 -25.428917 0.000000 0.000000 0.000000 -24.856943 15.062519 18.534182 0.000000 0.000000 0.000000 0.602423 6.548490 -18.493288 0.020660 -0.925101 -2.542777 0.000000 0.000000 0.000000 7.739090 28.866436 -42.761264 -3.714330 -11.770173 34.923781 -4.045080 -3.391779 -39.340590 -1.061065 6.548993 -18.385896 0.530559 0.607761 4.846199 -1.455691 0.785454 1.577192 -1.836143 0.382552 -1.068383 6.556250 0.784056 -1.094577 -1.735393 0.932390 3.432820 -1.651896 0.515768 1.305932 0.000000 0.000000 0.000000 1.614159 4.593255 -6.433339 6.599844 -11.258889 0.651299 17.812171 -3.262948 -10.446925 0.000000 0.000000 0.000000 -7.125000 0.000000 0.000000 -8.166081 40.805393 -0.851110 0.000000 0.000000 0.000000 4.823628 10.647973 5.941484 -9.777931 -16.391442 -1.411631 -22.353597 19.847763 9.165414 0.000000 0.000000 0.000000 7.125000 0.000000 0.000000 4.012548 39.844861 0.510855
18.033948 16.341429 -0.542398 27.742630 -84.856329 -31.625003 0.000000 0.000000 0.000000 -25.231226 15.151363 19.497947 0.000000 0.000000 0.000000 0.616702 6.802440 -18.849809 0.055322 -1.517113 -4.172806 0.000000 0.000000 0.000000 7.026423 28.436228 -41.222327 -3.593083 -11.598292 34.325430 -4.152337 -3.406258 -39.848414 -0.938747 6.171347 -17.282297 0.020134 0.614449 4.462321 -1.578968 0.771632 1.367929 -1.671935 0.375719 -1.074622 6.409055 0.695453 -1.038681 -1.597450 0.814995 3.544535 -1.583086 0.458721 1.323700 0.000000 0.000000 0.000000 1.542615 4.740107 -6.684223 6.580498 -11.226732 0.647481 17.425449 -3.501624 -10.360360 0.000000 0.000000 0.000000 -7.125000 0.000000 0.000000 -8.487541 40.681864 -0.911210 0.000000 0.000000 0.000000 4.774181 10.920287 6.177910 -9.836369 -16.483236 -1.428133 -22.333618 19.688931 9.287332 0.000000 0.000000 0.000000 7.125000 0.000000 0.000000 4.044738 39.973921 0.502092
17.707020 16.280991 -0.556645 28.469587 -84.919008 -32.167763 0.000000 0.000000 0.000000 -24.924416 15.228371 20.675533 0.000000 0.000000 0.000000 0.627151 6.994023 -19.113758 0.108735 -2.124839 -5.850802 0.000000 0.000000 0.000000 7.148008 27.737157 -39.463339 -3.462766 -11.408889 33.671720 -4.221942 -3.560713 -40.227050 -0.869088 5.944076 -16.622288 0.056246 0.561616 4.182199 -1.551951 0.707136 1.161374 -1.659223 0.344224 -1.131784 6.297817 0.590208 -1.037998 -1.494669 0.670074 3.775153 -1.533398 0.389478 1.388931 0.000000 0.000000 0.000000 1.475436 4.904468 -6.601781 6.583100 -11.231091 0.647983 17.768500 -3.062320 -10.364027 0.000000 0.000000 0.000000 -7.125000 0.000000 0.000000 -8.189224 40.715708 -0.871784 0.000000 0.000000 0.000000 4.710911 11.157454 6.491757 -9.878410 -16.549113 -1.440123 -22.293073 19.852683 9.365117 0.000000 0.000000 0.000000 7.125000 0.000000 0.000000 4.089733 40.054035 0.499623
17.356427 16.227404 -0.587525 28.638551 -85.268883 -32.008742 0.000000 0.000000 0.000000 -24.320669 15.444529 21.754233 0.000000 0.000000 0.000000 0.642627 6.947479 -19.239350 0.167646 -2.637349 -7.270530 0.000000 0.000000 0.000000 7.805942 26.848539 -37.907801 -3.345437 -11.234283 33.074009 -4.261924 -3.594052 -40.423253 -0.813855 5.756694 -16.080125 0.080828 0.518327 3.649933 -1.428662 0.659055 1.012342 -1.538993 0.322091 -0.989795 6.200359 0.540280 -1.156112 -1.384415 0.590561 3.994114 -1.483156 0.352966 1.474474 0.000000 0.000000 0.000000 1.393367 4.986774 -6.593816 6.615803 -11.285160 0.654410 18.311234 -2.585291 -10.316312 0.000000 0.000000 0.000000 -7.125000 0.000000 0.000000 -7.707357 40.714040 -0.820085 0.000000 0.000000 0.000000 4.608986 11.095529 6.549462 -9.896139 -16.576914 -1.445143 -22.104262 19.893017 9.443692 0.000000 0.000000 0.000000 7.125000 0.000000 0.000000 4.264385 40.122136 0.513842
